<?xml version="1.0" standalone="no"?>
<!DOCTYPE svg PUBLIC "-//W3C//DTD SVG 20010904//EN"
 "http://www.w3.org/TR/2001/REC-SVG-20010904/DTD/svg10.dtd">
<svg version="1.0" xmlns="http://www.w3.org/2000/svg"
 width="700.000000pt" height="700.000000pt" viewBox="0 0 700.000000 700.000000"
 preserveAspectRatio="xMidYMid meet">
<metadata>
Created by potrace 1.14, written by Peter Selinger 2001-2017
</metadata>
<g transform="translate(0.000000,700.000000) scale(0.100000,-0.100000)"
fill="#000000" stroke="none">
<path d="M4918 6888 c-19 -35 -48 -85 -63 -113 -34 -63 -91 -165 -128 -230
-15 -27 -33 -62 -40 -77 -6 -16 -15 -28 -19 -28 -4 0 -8 -4 -8 -9 0 -8 -42
-86 -147 -271 -11 -19 -35 -62 -53 -95 -18 -33 -70 -128 -116 -211 l-84 -151
-1786 0 c-1220 0 -1788 -4 -1793 -11 -8 -14 -7 -1420 2 -1428 4 -4 627 -7
1386 -7 l1380 1 -21 -42 c-11 -22 -106 -193 -209 -379 -104 -187 -189 -340
-189 -342 0 -2 -16 -31 -35 -63 -48 -83 -103 -181 -121 -217 -8 -16 -31 -57
-50 -90 -19 -33 -44 -78 -55 -101 l-21 -40 -1027 0 c-564 1 -1030 0 -1036 -1
-11 -3 -14 -1427 -4 -1438 4 -3 288 -6 633 -6 344 0 626 -1 626 -4 0 -2 -8
-19 -19 -37 -10 -18 -81 -145 -156 -283 -76 -137 -146 -263 -155 -280 -243
-437 -243 -437 -229 -450 8 -7 168 -105 355 -218 l341 -205 20 37 c11 20 31
56 45 81 39 68 676 1217 711 1280 16 30 34 60 39 67 8 10 341 12 1511 13 826
0 1598 0 1715 0 l212 0 0 720 c0 569 -3 720 -12 721 -7 0 -598 2 -1313 3 -715
2 -1302 4 -1304 4 -2 1 1 8 6 15 6 6 26 41 45 77 20 36 48 87 62 113 56 100
381 685 415 748 20 36 67 122 106 191 l69 126 936 0 c514 1 947 1 963 1 l27 1
0 720 0 720 -22 1 c-13 0 -263 1 -556 1 l-533 0 7 22 c4 11 15 33 25 48 11 14
19 28 19 31 0 3 63 119 140 257 78 139 161 291 187 339 25 47 50 90 54 96 19
20 7 34 -63 76 -40 24 -81 48 -90 54 -9 5 -47 28 -84 50 -80 48 -79 47 -289
174 -91 56 -167 101 -168 101 -2 0 -19 -28 -39 -62z"/>
</g>
</svg>
